<svg width="64" height="64" viewBox="0 0 66 66" fill="none" xmlns="http://www.w3.org/2000/svg">
<path d="M33.5741 8.11111L2 34.3675H7.16667L33.5741 12.4872L58.2593 34.3675H64L33.5741 8.11111Z" stroke="black"/>
<path d="M14.6296 65V34.3675L33.5741 17.9573L51.3704 34.3675V64.453H39.8889V52.9658H27C27 52.9658 27.0679 60.9886 27.2593 65H14.6296Z" stroke="black"/>
<path d="M22.6667 13.5812L11.1852 22.8803V1H22.6667V13.5812Z" stroke="black"/>
<path d="M20.3704 39.6496V43.3077C20.3704 44.4123 21.2658 45.3077 22.3704 45.3077H26.4074C27.512 45.3077 28.4074 44.4123 28.4074 43.3077V39.6496C28.4074 38.545 27.512 37.6496 26.4074 37.6496H22.3704C21.2658 37.6496 20.3704 38.545 20.3704 39.6496Z" stroke="black"/>
<path d="M37.5926 39.6496V43.3077C37.5926 44.4123 38.488 45.3077 39.5926 45.3077H43.6296C44.7342 45.3077 45.6296 44.4123 45.6296 43.3077V39.6496C45.6296 38.545 44.7342 37.6496 43.6296 37.6496H39.5926C38.488 37.6496 37.5926 38.545 37.5926 39.6496Z" stroke="black"/>
</svg>
